<svg width="512" height="512" viewBox="0 0 512 512" xmlns="http://www.w3.org/2000/svg">
  <defs>
    <linearGradient id="g" x1="0" y1="0" x2="1" y2="1">
      <stop offset="0" stop-color="#0f766e"/>
      <stop offset="1" stop-color="#22c55e"/>
    </linearGradient>
  </defs>
  <rect x="32" y="32" width="448" height="448" rx="120" fill="url(#g)"/>
  <path d="M176 186c0-22 18-40 40-40h80c22 0 40 18 40 40v64c0 48-32 88-76 100l-16 36-16-36c-44-12-76-52-76-100v-64z" fill="#0f172a" opacity="0.12"/>
  <path d="M176 170c0-22 18-40 40-40h80c22 0 40 18 40 40v64c0 48-32 88-76 100l-16 36-16-36c-44-12-76-52-76-100v-64z" fill="#ffffff"/>
  <text x="256" y="250" font-family="'Space Grotesk', sans-serif" font-size="88" font-weight="700" text-anchor="middle" fill="#0f766e">Y</text>
</svg>
